<svg xmlns="http://www.w3.org/2000/svg" viewBox="0 0 200 200">
<path d="M 50.25,16.00 L 51.00,17.50 L 51.00,23.50 L 52.00,24.25 L 53.00,30.50 L 54.00,31.25 L 57.00,38.50 L 59.00,40.25 L 59.00,41.50 L 68.25,50.75 L 69.50,50.75 L 71.25,52.75 L 72.50,52.75 L 79.25,56.75 L 84.50,57.75 L 85.25,58.75 L 88.50,58.75 L 89.25,59.75 L 94.50,59.75 L 96.00,62.25 L 95.50,96.00 L 77.25,96.00 L 76.50,95.00 L 51.25,95.00 L 50.50,94.00 L 35.25,94.00 L 34.50,93.00 L 16.00,92.25 L 16.25,107.75 L 21.50,107.75 L 22.25,106.75 L 33.50,106.75 L 34.25,105.75 L 50.50,105.75 L 52.00,107.25 L 52.00,113.50 L 53.00,114.25 L 53.00,124.50 L 54.00,125.25 L 54.00,158.50 L 53.00,159.25 L 53.00,168.50 L 52.00,169.25 L 51.00,183.50 L 65.75,183.50 L 65.75,179.25 L 64.75,178.50 L 64.75,172.25 L 63.75,171.50 L 63.75,163.25 L 62.75,162.50 L 62.75,120.25 L 63.75,119.50 L 63.75,111.25 L 64.75,110.50 L 64.75,105.25 L 75.50,104.75 L 76.25,103.75 L 94.50,103.75 L 95.00,115.50 L 94.00,116.25 L 94.00,127.50 L 93.00,128.25 L 93.00,137.50 L 92.00,138.25 L 92.00,141.50 L 107.50,141.75 L 106.75,128.25 L 105.75,127.50 L 105.75,116.25 L 104.75,115.50 L 104.75,104.25 L 123.50,103.75 L 124.25,104.75 L 134.50,104.75 L 135.00,111.50 L 136.00,112.25 L 136.00,120.50 L 137.00,121.25 L 137.00,162.50 L 136.00,163.25 L 136.00,171.50 L 135.00,172.25 L 135.00,178.50 L 134.00,179.25 L 134.00,183.50 L 148.50,183.75 L 148.75,177.25 L 147.75,176.50 L 146.75,159.25 L 145.75,158.50 L 145.75,124.25 L 146.75,123.50 L 146.75,114.25 L 147.75,113.50 L 147.75,107.25 L 149.25,105.75 L 165.50,105.75 L 166.25,106.75 L 177.50,106.75 L 178.25,107.75 L 183.50,107.75 L 183.75,92.25 L 165.25,93.00 L 164.50,94.00 L 149.25,94.00 L 148.50,95.00 L 123.25,95.00 L 122.50,96.00 L 104.25,96.00 L 103.75,61.25 L 105.25,59.75 L 110.50,59.75 L 111.25,58.75 L 114.50,58.75 L 115.25,57.75 L 120.50,56.75 L 121.25,55.75 L 128.50,52.75 L 130.25,50.75 L 131.50,50.75 L 140.75,41.50 L 140.75,40.25 L 142.75,38.50 L 142.75,37.25 L 145.75,32.50 L 145.75,30.25 L 147.75,27.50 L 147.75,24.25 L 148.75,23.50 L 148.75,16.25 L 134.25,16.00 L 134.00,26.50 L 133.00,27.25 L 133.00,31.50 L 132.00,32.25 L 131.00,37.50 L 129.00,39.25 L 128.00,42.50 L 120.50,50.00 L 119.25,50.00 L 112.50,54.00 L 106.50,55.00 L 105.25,56.00 L 104.75,42.25 L 105.75,41.50 L 105.75,30.25 L 106.75,29.50 L 106.75,20.25 L 107.75,19.50 L 107.75,16.25 L 92.25,16.00 L 93.00,29.50 L 94.00,30.25 L 94.00,42.50 L 95.00,43.25 L 95.00,55.50 L 94.25,56.00 L 93.25,55.00 L 90.25,55.00 L 89.50,54.00 L 84.25,53.00 L 82.50,51.00 L 79.25,50.00 L 71.75,42.50 L 71.75,41.25 L 68.75,37.50 L 68.75,35.25 L 66.75,31.50 L 66.75,28.25 L 65.75,27.50 L 65.50,16.00 Z" fill="#FFFFFF"/>
</svg>
